<svg xmlns="http://www.w3.org/2000/svg" width="1600" height="1000" viewBox="0 0 1600 1000">
  <rect width="1600" height="1000" fill="#0b1220"/>
  <rect x="80" y="80" width="1440" height="840" rx="16" fill="#111827" stroke="#1f2937" stroke-width="4"/>
  <text x="120" y="140" fill="#93c5fd" font-size="36" font-family="Arial, Helvetica, sans-serif" font-weight="bold">Windsurf • Plugin Settings</text>
  <rect x="120" y="180" width="640" height="200" rx="12" fill="#0f172a" stroke="#1f2937"/>
  <text x="140" y="220" fill="#e5e7eb" font-size="24" font-family="Arial">ServiceNow Instance</text>
  <rect x="140" y="240" width="600" height="48" rx="8" fill="#111827" stroke="#374151"/>
  <text x="152" y="272" fill="#9ca3af" font-size="20" font-family="Arial">https://yourinstance.service-now.com</text>
  <text x="140" y="320" fill="#e5e7eb" font-size="24" font-family="Arial">Auth Method</text>
  <rect x="140" y="340" width="300" height="48" rx="8" fill="#111827" stroke="#374151"/>
  <text x="152" y="372" fill="#9ca3af" font-size="20" font-family="Arial">basic</text>

  <rect x="120" y="420" width="640" height="160" rx="12" fill="#0f172a" stroke="#1f2937"/>
  <text x="140" y="460" fill="#e5e7eb" font-size="24" font-family="Arial">Secrets</text>
  <rect x="140" y="480" width="600" height="48" rx="8" fill="#111827" stroke="#374151"/>
  <text x="152" y="512" fill="#9ca3af" font-size="20" font-family="Arial">sn_username</text>
  <rect x="140" y="540" width="600" height="48" rx="8" fill="#111827" stroke="#374151"/>
  <text x="152" y="572" fill="#9ca3af" font-size="20" font-family="Arial">••••••••</text>

  <rect x="820" y="180" width="700" height="180" rx="12" fill="#0f172a" stroke="#1f2937"/>
  <text x="840" y="220" fill="#e5e7eb" font-size="24" font-family="Arial">Send as HTML</text>
  <rect x="840" y="240" width="40" height="24" rx="12" fill="#22c55e"/>
  <circle cx="864" cy="252" r="10" fill="#ffffff"/>
  <text x="840" y="300" fill="#9ca3af" font-size="18" font-family="Arial">Converts Markdown to HTML for Description and Acceptance Criteria</text>

  <text x="120" y="900" fill="#9ca3af" font-size="18" font-family="Arial">Placeholder screenshot — replace with real capture</text>
</svg>
